<?xml version="1.0" encoding="utf-8"?>
<!-- Generator: Adobe Illustrator 27.0.1, SVG Export Plug-In . SVG Version: 6.00 Build 0)  -->
<svg version="1.1" id="Layer_1" xmlns="http://www.w3.org/2000/svg" xmlns:xlink="http://www.w3.org/1999/xlink" x="0px" y="0px"
	 viewBox="0 0 360 360" style="enable-background:new 0 0 360 360;" xml:space="preserve">
<style type="text/css">
	.st0{fill:#F3C7BF;}
	.st1{fill:#C3533B;}
	.st2{fill:#762515;}
	.st3{fill:none;stroke:#762515;stroke-width:1.1962;stroke-linecap:round;stroke-linejoin:round;}
	.st4{fill:none;stroke:#762515;stroke-width:1.1962;stroke-linecap:round;stroke-miterlimit:10;}
</style>
<circle class="st0" cx="180.18" cy="180.29" r="166.75"/>
<circle class="st1" cx="97.71" cy="108.57" r="8.96"/>
<path class="st2" d="M133.09,236.66l-2.04-14.37c-0.15-1.03-1.7-0.59-1.56,0.44l2.04,14.37
	C131.68,238.14,133.24,237.7,133.09,236.66z"/>
<path class="st2" d="M137.82,236.17l-1.9-13.24c-0.05-0.44-0.63-0.69-0.97-0.59c-0.49,0.15-0.63,0.59-0.58,0.98l1.9,13.24
	c0.05,0.44,0.63,0.69,0.97,0.59C137.72,237.01,137.87,236.57,137.82,236.17z"/>
<path class="st2" d="M128.08,234.6l-2.05-14.37c-0.15-1.03-1.7-0.59-1.56,0.44l2.04,14.37C126.67,236.07,128.22,235.63,128.08,234.6
	z"/>
<path class="st2" d="M91.22,199.9l-9.1-11.27c-0.63-0.84-1.8,0.34-1.12,1.13l9.1,11.27C90.73,201.87,91.9,200.69,91.22,199.9z"/>
<path class="st2" d="M93.17,197.25l-9.79-12.2c-0.63-0.84-1.8,0.34-1.12,1.13l9.79,12.2C92.68,199.21,93.85,198.03,93.17,197.25z"/>
<path class="st2" d="M96.04,195.82l-10.81-13.53c-0.63-0.84-1.8,0.34-1.12,1.13l10.81,13.53C95.55,197.79,96.72,196.61,96.04,195.82
	z"/>
<path class="st2" d="M97.45,192.57l-10.81-13.53c-0.63-0.84-1.8,0.34-1.12,1.13l10.81,13.53C96.97,194.54,98.14,193.36,97.45,192.57
	z"/>
<path class="st2" d="M123.21,231.74l-2.04-14.37c-0.15-1.03-1.7-0.59-1.56,0.44l2.04,14.37
	C121.8,233.22,123.36,232.78,123.21,231.74z"/>
<path class="st2" d="M142.25,234.45l-1.56-12.01c-0.05-0.44-0.34-0.79-0.83-0.84c-0.39,0-0.88,0.39-0.83,0.84l1.56,12.01
	c0.05,0.44,0.34,0.79,0.83,0.84C141.81,235.29,142.3,234.89,142.25,234.45z"/>
<path class="st2" d="M146.39,232.88l-0.93-9.2c0-0.44-0.34-0.84-0.83-0.84c-0.39,0-0.88,0.39-0.83,0.84l0.93,9.2
	c0,0.44,0.34,0.84,0.83,0.84C145.95,233.71,146.44,233.32,146.39,232.88z"/>
<path class="st2" d="M118.1,224.21l-0.88-9.2c0-0.44-0.34-0.84-0.83-0.84c-0.39,0-0.83,0.39-0.83,0.84l0.88,9.2
	c0,0.44,0.34,0.84,0.83,0.84C117.66,225.05,118.1,224.66,118.1,224.21z"/>
<path class="st2" d="M150.62,230.61l-0.78-6c-0.05-0.44-0.34-0.84-0.83-0.84c-0.39,0-0.88,0.39-0.83,0.84l0.78,6
	c0.05,0.44,0.34,0.84,0.83,0.84C150.18,231.45,150.67,231.06,150.62,230.61z"/>
<path class="st2" d="M206.86,202.71l3.7-13.88c0.29-1.03-1.27-1.43-1.56-0.44l-3.7,13.88C205.01,203.3,206.57,203.69,206.86,202.71z
	"/>
<path class="st2" d="M212.16,199.17l3.21-13.88c0.24-1.03-1.31-1.48-1.56-0.44l-3.21,13.88
	C210.36,199.76,211.92,200.2,212.16,199.17z"/>
<path class="st2" d="M217.72,195.62l3.21-12.65c0.24-1.03-1.31-1.48-1.56-0.44l-3.21,12.65
	C215.91,196.21,217.47,196.66,217.72,195.62z"/>
<path class="st2" d="M223.46,191.44l2.73-12.94c0.2-1.03-1.36-1.48-1.56-0.44L221.9,191C221.71,192.03,223.27,192.47,223.46,191.44z
	"/>
<path class="st2" d="M229.11,187.75l3.02-12.5c0.24-1.03-1.31-1.48-1.56-0.44l-3.02,12.5C227.31,188.34,228.87,188.78,229.11,187.75
	z"/>
<path class="st2" d="M235.58,182.58l2.34-11.71c0.19-1.03-1.36-1.48-1.56-0.44l-2.34,11.71
	C233.83,183.17,235.39,183.61,235.58,182.58z"/>
<path class="st2" d="M241.38,178.45l2.68-12.55c0.19-1.03-1.31-1.48-1.56-0.44L239.82,178
	C239.63,179.04,241.13,179.48,241.38,178.45z"/>
<path class="st2" d="M247.46,173.18l2.48-11.27c0.24-1.03-1.31-1.48-1.56-0.44l-2.48,11.27
	C245.66,173.77,247.22,174.21,247.46,173.18z"/>
<path class="st2" d="M253.4,168.85l2-10.83c0.19-1.03-1.36-1.48-1.56-0.44l-2,10.83C251.65,169.44,253.21,169.88,253.4,168.85z"/>
<path class="st2" d="M257.93,164.96l2.09-8.56c0.24-1.03-1.31-1.48-1.56-0.44l-2.09,8.56C256.13,165.55,257.69,166,257.93,164.96z"
	/>
<path class="st2" d="M95.65,228.15c13.24,9.65,26,19.98,38.22,30.95c0.78,0.69,1.9-0.44,1.12-1.13
	c-12.32-11.02-25.22-21.46-38.56-31.2c-0.83-0.64-1.66,0.79-0.83,1.43L95.65,228.15z"/>
<path class="st2" d="M96.48,223.82c13.24,9.65,26,19.98,38.22,30.95c0.78,0.69,1.9-0.44,1.12-1.13
	c-12.32-11.02-25.22-21.46-38.56-31.2c-0.83-0.64-1.66,0.79-0.83,1.43L96.48,223.82z"/>
<path class="st2" d="M95.65,218.51c13.78,10.04,27.22,20.62,39.92,31.99c0.78,0.69,1.9-0.44,1.12-1.13
	c-12.81-11.47-26.39-22.1-40.27-32.23c-0.83-0.64-1.66,0.79-0.83,1.43L95.65,218.51z"/>
<path class="st2" d="M96.72,214.37c13.68,9.99,27.02,20.47,39.68,31.79c0.78,0.69,1.9-0.44,1.12-1.13
	c-12.76-11.42-26.24-22-40.02-32.04c-0.83-0.64-1.66,0.79-0.83,1.43L96.72,214.37z"/>
<path class="st2" d="M132.27,238.14c1.22,1.08,2.43,2.12,3.65,3.2c0.29,0.3,0.83,0.34,1.12,0c0.29-0.3,0.34-0.84,0-1.13
	c-1.22-1.08-2.43-2.17-3.65-3.2c-0.34-0.3-0.83-0.34-1.12,0C131.97,237.3,131.93,237.85,132.27,238.14z"/>
<path class="st2" d="M96.19,209.55c6.96,5.07,13.83,10.33,20.6,15.7c0.83,0.64,1.95-0.49,1.12-1.13
	c-6.87-5.46-13.83-10.78-20.94-15.94c-0.83-0.64-1.66,0.79-0.83,1.43L96.19,209.55z"/>
<path class="st2" d="M95.7,204.97c4.09,2.95,8.08,6,12.12,9.06c0.34,0.25,0.88,0.05,1.12-0.3c0.24-0.39,0.05-0.84-0.29-1.13
	c-3.99-3.05-8.03-6.1-12.12-9.06C95.7,202.91,94.87,204.33,95.7,204.97z"/>
<path class="st2" d="M95.17,199.95c3.21,2.31,6.38,4.68,9.54,7.09c0.34,0.25,0.93,0.05,1.12-0.3c0.24-0.39,0.05-0.84-0.29-1.13
	c-3.16-2.41-6.33-4.77-9.54-7.09c-0.34-0.25-0.88-0.05-1.12,0.3C94.63,199.21,94.82,199.66,95.17,199.95z"/>
<path class="st2" d="M112.69,246.66c1.02,0,1.02-1.62,0-1.62C111.67,245.03,111.67,246.66,112.69,246.66z"/>
<path class="st2" d="M112.26,245.87l19.91,17.32c0.78,0.69,1.95-0.49,1.12-1.13c-6.62-5.76-13.29-11.52-19.91-17.32
	C112.6,244.05,111.43,245.23,112.26,245.87z"/>
<path class="st2" d="M112.84,250.84l17.82,15.5c0.78,0.69,1.95-0.49,1.12-1.13l-17.82-15.5
	C113.18,249.02,112.01,250.2,112.84,250.84z"/>
<path class="st2" d="M112.55,255.17l17.67,15.16c0.78,0.69,1.95-0.49,1.12-1.13l-17.67-15.16
	C112.89,253.35,111.72,254.53,112.55,255.17z"/>
<path class="st2" d="M113.52,260.58c5.79,4.92,11.59,9.79,17.33,14.71c0.78,0.69,1.95-0.49,1.12-1.13l-17.33-14.71
	C113.86,258.76,112.69,259.94,113.52,260.58z"/>
<path class="st2" d="M113.13,265.5l15.34,12.5c0.78,0.64,1.95-0.49,1.12-1.13l-15.34-12.5C113.47,263.73,112.3,264.86,113.13,265.5z
	"/>
<path class="st2" d="M113.47,270.52l9.06,6.99c0.34,0.25,0.93,0.05,1.12-0.3c0.24-0.44,0.05-0.84-0.29-1.13l-9.06-6.99
	c-0.34-0.25-0.93-0.05-1.12,0.3C112.94,269.83,113.13,270.23,113.47,270.52z"/>
<path class="st3" d="M103.05,137.31l12.56,6.99"/>
<path class="st3" d="M107.68,135.93l14.27,7.97"/>
<path class="st3" d="M114.01,135.53l14.22,7.92"/>
<path class="st3" d="M120.29,135.09l14.27,7.92"/>
<path class="st3" d="M126.57,134.4l14.27,7.92"/>
<path class="st4" d="M201.79,204.33c20.69-12.55,42.07-27.51,58.52-42.81c1.66-1.53,0.78-4.33-1.41-4.68l-122.11-18.11
	c-2.14-0.3-3.9-1.97-4.33-4.13v-0.25"/>
<path class="st2" d="M91.37,123.72c3.6,3.35,6.82,7.19,10.22,10.73c1.22,0.98,2.82,0.34,4.09-0.15c4.82-1.72,10.27-2.66,15.39-2.46
	c8.72,0,21.57,0.2,30.24,0.25c0.83-0.05,1.22,0.2,1.7-0.25c5.5-8.37,5.65-20.67,5.31-30.76c-0.19-1.87-0.54-3.99-1.17-5.12
	c-9.49-5.91-22.01-8.46-32.67-12.2c-3.8-1.13-13.68-4.13-17.38-5.17c-3.75-1.28-6.72-0.64-9.69,1.97
	c-4.63,3.79-8.86,8.02-12.81,12.5c-5.21,5.95-10.18,12.7-14.02,19.24c-0.73,1.62-0.93,3.2-0.68,5.17c1.22,13.98,1.7,28.4,9.06,40.7
	c11.1,21.56,23.27,42.81,37.44,62.4c4.19,4.92,10.03,14.62,16.36,15.11c7.45-1.18,15.09-4.53,22.54-7.38c0.44-0.15,0.88,0,1.07,0.44
	c0.15,0.39,0,0.84-0.39,1.03c-7.45,3.59-14.61,7.28-22.98,8.71c-15.14,0.79-48.88-64.32-56.82-78.89
	c-7.5-12.55-8.28-27.66-9.49-41.88c-0.29-2.02,0-4.68,0.93-6.79c4.33-7.48,9.1-13.78,14.51-20.13c6.96-6.69,14.9-19.49,25.95-15.6
	c3.65,1.03,13.68,4.04,17.43,5.17c10.61,3.4,21.52,6.35,31.7,11.22c1.07,0.59,2.29,1.28,3.02,2.51c3.94,6.64,2.24,43.36-8.86,41.73
	c-8.67-0.05-21.52-0.25-30.19-0.2c-5.06-0.15-9.59,0.69-14.27,2.31c-2.39,0.98-5.31,1.13-7.35-0.59c-0.93-0.69-1.61-1.77-2.34-2.66
	c-2.39-3.25-4.82-6.5-7.01-9.94c-0.54-0.79,0.58-1.72,1.22-1.03H91.37z"/>
<path class="st2" d="M111.91,111.22c-0.68,4.97-1.07,13.09,3.99,9.74c2.14-0.98,3.65-3.1,5.84-5.27c2.14-2.51,6.67-2.9,9.45-1.18
	c4.77,2.61,8.23,7.53,13.63,4.23c2.14-1.23,3.85-3.64,6.52-5.22c2.73-1.82,6.38-1.38,8.91-0.1c0.88,0.44,0.29,1.87-0.63,1.48
	c-2.53-0.93-5.11-0.98-7.11,0.49c-4.09,3.64-9.01,9.74-15.58,6.45c-2.87-1.38-4.87-3.49-7.11-4.53c-5.89-3.05-7.45,4.53-12.71,6.45
	c-9.2,4.08-8.91-7.43-6.82-12.94c0.29-0.98,1.75-0.59,1.56,0.39H111.91z"/>
<path class="st2" d="M103.64,108.52c1.22,11.42-15.39,13.09-16.6,1.82C86.3,99.56,101.93,97.74,103.64,108.52z M101.15,108.81
	c-0.78-8.42-13.19-7.19-12.27,1.38C90.15,118.16,101.54,116.69,101.15,108.81z"/>
<path class="st2" d="M104.17,92.87c0,0,1.46-1.77,2.73-0.1c0.83,1.08,0,6.4-2.82,5.51C101.25,97.39,104.17,92.87,104.17,92.87z"/>
<path class="st2" d="M160.99,168.75l-9.4,6.35l0.34-0.49l-7.99,44.68c0,0-0.78-2.12-0.78-2.07l33.6,26.43
	c0.2,0.15,0.34,0.39,0.34,0.59l2.05,30.76l-0.44-0.69c4.67,2.17,10.32,2.36,15.24,0.84l-0.54,0.54l12.08-38.09l0.29,0.89l-8.57-6.55
	c0,0-0.34-0.44-0.34-0.74l5.16-44.68l0.39,1.38l-6.33-9.55c-0.24-0.39-0.15-0.89,0.24-1.13c0.34-0.25,0.78-0.15,1.02,0.1l7.89,8.32
	c0.34,0.34,0.44,0.84,0.39,1.28c0.1,0-7.16,44.49-7.11,44.49c0,0-0.34-0.79-0.29-0.74l8.62,6.55c0.29,0.2,0.39,0.59,0.29,0.89
	l-12.08,38.09c-2.29,1.72-5.99,1.48-8.81,1.57c-2.34-0.25-7.25-0.64-8.62-2.66l-2.04-30.76l0.34,0.59l-35.06-24.41
	c-0.68-0.49-0.97-1.33-0.78-2.12c0-0.2,10.71-44.49,10.27-44.34l0.49-0.3l9.4-6.35c0.88-0.59,1.75,0.74,0.88,1.38L160.99,168.75z"/>
<path class="st2" d="M108.02,171.9l12.12,7.53c0.39,0.25,0.58,0.64,0.58,1.03l1.02,18.45l-0.54-0.69c3.7,0.49,7.25,1.67,10.81,1.82
	l-0.63,0.49c2.87-7.97,5.7-16.14,7.06-24.31c0-0.05,0.19,1.13,0.19,1.08l-5.79-11.22c-0.49-0.89,0.88-1.67,1.41-0.84l7.06,10.38
	c0.24,0.34,0.29,0.74,0.19,1.13c-2.34,8.56-4.97,17.52-9.3,24.85c-3.99,0.74-7.99-0.1-11.54-1.92c-0.39,0-0.54-0.34-0.54-0.69
	L118,180.66l0.58,1.03l-11.49-8.46c-0.83-0.59,0-1.92,0.88-1.38L108.02,171.9z"/>
<path class="st3" d="M86.74,176.48l-6.57,16.24l8.52,9.69l8.81-7.63l-1.07,37.2l16.46,11.56l2.58,32.04c0,0,8.91,1.57,13.97-0.25
	l9.3-39.57"/>
<path class="st2" d="M147.07,98.77c0,0,1.85-1.03,2.68-1.03c0.83,0,3.36,2.12,3.6,2.76l-6.23-1.72H147.07z"/>
<path class="st2" d="M103.98,76.14c0.93,0,1.9,0.15,2.78,0.39c12.85,3.69,48.01,14.03,51.76,17.81c4.58,4.68,1.36,39.57-5.65,39.62
	c-0.24,0-0.49,0-0.73,0c-3.99,0-11.83-0.15-19.33-0.2l-0.15,0.59v0.25c0.49,2.17,2.19,3.79,4.38,4.13l122.11,18.11
	c2.24,0.34,3.12,3.15,1.41,4.68c-16.46,15.3-37.88,30.27-58.52,42.81l-0.29,0.3l-3.85,26.62l8.62,6.59l-12.07,38.09
	c-2.48,0.74-4.77,1.03-6.82,1.03c-5.4,0-9.06-1.92-9.06-1.92l-2.05-30.76l-20.5-15.21h-0.19c-6.62,2.95-12.32,5.22-16.65,6.59
	l-0.2,0.15l-9.3,39.57c-1.85,0.64-4.19,0.84-6.43,0.84c-3.94,0-7.55-0.64-7.55-0.64l-2.58-32.04l-16.46-11.57l1.07-37.2l-8.81,7.63
	l-8.52-9.69l6.57-16.24v-0.34c-7.74-13.83-13.54-25.54-14.51-29.13c-2.19-8.02-3.55-23.57-4.04-30.41
	c-0.15-2.21,0.39-4.43,1.61-6.35C81.14,92.67,92,82.78,97.79,78.25C99.6,76.87,101.74,76.14,103.98,76.14z M103.98,71.21
	c-3.31,0-6.52,1.13-9.15,3.15C89.03,78.89,77.54,89.27,66,107.58c-1.75,2.8-2.58,6.05-2.39,9.35c0.58,8.22,1.95,23.18,4.19,31.35
	c1.31,4.68,8.08,17.77,13.88,28.3l-5.75,14.22c-0.68,1.72-0.34,3.69,0.88,5.12l8.52,9.69c0.97,1.08,2.29,1.62,3.6,1.62
	c1.12,0,2.24-0.39,3.16-1.18l0.49-0.44l-0.73,26.18c0,1.67,0.73,3.2,2.09,4.18l14.56,10.24l2.43,29.72
	c0.19,2.21,1.85,4.04,3.99,4.43c0.15,0,4.09,0.69,8.37,0.69c3.26,0,5.89-0.34,8.03-1.13c1.56-0.54,2.73-1.87,3.12-3.49l8.67-37.01
	c3.51-1.23,7.55-2.85,12.17-4.87l16.55,12.25l1.9,28.49c0.1,1.67,1.07,3.2,2.58,3.99c0.49,0.25,4.87,2.51,11.3,2.51
	c2.78,0,5.55-0.44,8.23-1.23c1.51-0.49,2.73-1.67,3.21-3.2l12.07-38.09c0.63-1.97-0.05-4.13-1.7-5.41l-6.33-4.82l3.12-21.6
	c16.41-10.04,39.19-25.25,57.6-42.37c2.14-2.02,2.97-5.02,2.09-7.82c-0.88-2.85-3.21-4.87-6.09-5.32l-102-15.16
	c1.41-1.28,2.63-3.15,3.65-5.66c3.85-9.5,6.52-34.15,0.44-40.3c-1.36-1.38-4.97-5.07-53.85-19.05
	C106.75,71.41,105.39,71.21,103.98,71.21z"/>
<path class="st2" d="M284.75,253.88l-12.43,12.56l12.43,12.56l12.43-12.56L284.75,253.88z"/>
<path class="st2" d="M266.55,241.78l5.94-70.13l-57.94,41.39l-2,13.48l8.96,6.3l-15.24,47.1h59.69l0.58-29.33l-44.7,15.7l2.92-8.81
	l41.82-15.7H266.55z M260.17,226.58l-0.68,6.69l-31.36,13.43l2.09-6.5L260.17,226.58z"/>
</svg>
