<?xml version="1.0" encoding="UTF-8"?><svg id="Layer_1" xmlns="http://www.w3.org/2000/svg" xmlns:xlink="http://www.w3.org/1999/xlink" viewBox="0 0 1563.07 964.8"><defs><style>.cls-1{filter:url(#drop-shadow-7);}.cls-2{filter:url(#drop-shadow-4);}.cls-3{filter:url(#drop-shadow-8);}.cls-4{fill:#c3533b;}.cls-5{filter:url(#drop-shadow-3);}.cls-6{filter:url(#drop-shadow-1);}.cls-7{filter:url(#drop-shadow-6);}.cls-8{filter:url(#drop-shadow-5);}.cls-9{fill:#ec907c;}.cls-10{filter:url(#drop-shadow-2);}.cls-11{filter:url(#drop-shadow-9);}</style><filter id="drop-shadow-1" filterUnits="userSpaceOnUse"><feOffset dx="7" dy="7"/><feGaussianBlur result="blur" stdDeviation="5"/><feFlood flood-color="#231f20" flood-opacity=".5"/><feComposite in2="blur" operator="in"/><feComposite in="SourceGraphic"/></filter><filter id="drop-shadow-2" filterUnits="userSpaceOnUse"><feOffset dx="7" dy="7"/><feGaussianBlur result="blur-2" stdDeviation="5"/><feFlood flood-color="#231f20" flood-opacity=".5"/><feComposite in2="blur-2" operator="in"/><feComposite in="SourceGraphic"/></filter><filter id="drop-shadow-3" filterUnits="userSpaceOnUse"><feOffset dx="7" dy="7"/><feGaussianBlur result="blur-3" stdDeviation="5"/><feFlood flood-color="#231f20" flood-opacity=".5"/><feComposite in2="blur-3" operator="in"/><feComposite in="SourceGraphic"/></filter><filter id="drop-shadow-4" filterUnits="userSpaceOnUse"><feOffset dx="7" dy="7"/><feGaussianBlur result="blur-4" stdDeviation="5"/><feFlood flood-color="#231f20" flood-opacity=".5"/><feComposite in2="blur-4" operator="in"/><feComposite in="SourceGraphic"/></filter><filter id="drop-shadow-5" filterUnits="userSpaceOnUse"><feOffset dx="7" dy="7"/><feGaussianBlur result="blur-5" stdDeviation="5"/><feFlood flood-color="#231f20" flood-opacity=".5"/><feComposite in2="blur-5" operator="in"/><feComposite in="SourceGraphic"/></filter><filter id="drop-shadow-6" filterUnits="userSpaceOnUse"><feOffset dx="7" dy="7"/><feGaussianBlur result="blur-6" stdDeviation="5"/><feFlood flood-color="#231f20" flood-opacity=".5"/><feComposite in2="blur-6" operator="in"/><feComposite in="SourceGraphic"/></filter><filter id="drop-shadow-7" filterUnits="userSpaceOnUse"><feOffset dx="7" dy="7"/><feGaussianBlur result="blur-7" stdDeviation="5"/><feFlood flood-color="#231f20" flood-opacity=".5"/><feComposite in2="blur-7" operator="in"/><feComposite in="SourceGraphic"/></filter><filter id="drop-shadow-8" filterUnits="userSpaceOnUse"><feOffset dx="7" dy="7"/><feGaussianBlur result="blur-8" stdDeviation="5"/><feFlood flood-color="#231f20" flood-opacity=".5"/><feComposite in2="blur-8" operator="in"/><feComposite in="SourceGraphic"/></filter><filter id="drop-shadow-9" filterUnits="userSpaceOnUse"><feOffset dx="7" dy="7"/><feGaussianBlur result="blur-9" stdDeviation="5"/><feFlood flood-color="#231f20" flood-opacity=".5"/><feComposite in2="blur-9" operator="in"/><feComposite in="SourceGraphic"/></filter></defs><g class="cls-6"><path class="cls-9" d="M681.95,116.55c12.52-9.14,23.98-19.63,34.59-30.93C779.68,18.4,846.87-24.39,991.64,15.19c100.01,27.34,132.64,113.95,219.77,133.22s139.25,18.23,199.74,10.18c60.49-8.04,138.69,10.3,151.63,100.91,6.47,90.61-99.03,124.3-129.45,170.97-30.41,46.66,6.14,115.29-20.47,165.85-26.61,50.57-96.82,13.61-157.49,25.35-60.68,11.74-52.66,90.03-64.23,159.91-6.22,37.56-41.68,91.94-95.95,110.55-58,19.89-132.89-9.13-181.47-46.54-180.15-138.72-207.17,16.94-277.23,13.37-54.34-2.77-48.54-35.6-104.83-73.95-42.81-24.43-103.11-20.09-166.99,54.54-63.88,74.63-193.35,73.62-254.83-4.04-64.72-87.37,35.6-145.62-38.92-240.89-5.73-7.33-10.53-15.36-16.81-22.23-122.65-133.88-14.65-245.74,104.64-222.19,96.22,18.99,158.19-50.24,168.71-114.15,25.5-154.94,225.76-25.49,354.49-119.49Z"/></g><g class="cls-10"><circle class="cls-9" cx="1240.06" cy="874.65" r="38"/></g><g class="cls-5"><circle class="cls-4" cx="1505.41" cy="476.62" r="38"/></g><g class="cls-2"><circle class="cls-9" cx="331.14" cy="87.93" r="41.62"/></g><g class="cls-8"><path class="cls-4" d="M552.85,881.37c2.87,29.83-25.78,57.88-62.66,47.24-36.88-10.64-88.44-63.73-81.57-87.54,6.87-23.81,42.34-34.49,79.22-23.85,36.88,10.64,62.64,39.48,65.01,64.15Z"/></g><g class="cls-7"><path class="cls-4" d="M497.55,90.21c-21.43-20.94-17.64-60.86,17.41-76.52,35.05-15.66,108.69-8.35,118.8,14.27s-10.1,53.66-45.15,69.33c-35.05,15.66-73.33,10.24-91.06-7.08Z"/></g><g class="cls-1"><path class="cls-4" d="M1392.09,693.93c36.87,37.71,21.84,107.66,6.83,122.33s-71.89,7.6-108.77-30.11-39.77-91.78-24.77-106.46,89.83-23.48,126.7,14.23Z"/></g><g class="cls-3"><path class="cls-4" d="M714.97,895.53c4.88-35.2,38.21-65.2,81.37-59.21,43.16,5.99,117.12,41.78,112.24,76.98-4.88,35.2-86.75,56.49-129.92,50.5-43.16-5.99-68.58-33.06-63.69-68.26Z"/></g><g class="cls-11"><path class="cls-4" d="M125.41,142.73c40.16-33.73,80.36-55.34,121.72-6.1,41.36,49.24,42.33,116.5,2.18,150.23-40.16,33.74-106.24,21.16-147.6-28.08-41.36-49.24-16.45-82.32,23.7-116.05Z"/></g></svg>