<?xml version="1.0" encoding="UTF-8"?><svg id="Layer_1" xmlns="http://www.w3.org/2000/svg" xmlns:xlink="http://www.w3.org/1999/xlink" viewBox="0 0 535 1272.25"><defs><style>.cls-1{fill:#ec907c;filter:url(#drop-shadow-1);}.cls-2{filter:url(#drop-shadow-3);}.cls-3{filter:url(#drop-shadow-2);}.cls-4{fill:#c2533b;}</style><filter id="drop-shadow-1" filterUnits="userSpaceOnUse"><feOffset dx="7" dy="7"/><feGaussianBlur result="blur" stdDeviation="5"/><feFlood flood-color="#231f20" flood-opacity=".5"/><feComposite in2="blur" operator="in"/><feComposite in="SourceGraphic"/></filter><filter id="drop-shadow-2" filterUnits="userSpaceOnUse"><feOffset dx="7" dy="7"/><feGaussianBlur result="blur-2" stdDeviation="5"/><feFlood flood-color="#231f20" flood-opacity=".5"/><feComposite in2="blur-2" operator="in"/><feComposite in="SourceGraphic"/></filter><filter id="drop-shadow-3" filterUnits="userSpaceOnUse"><feOffset dx="7" dy="7"/><feGaussianBlur result="blur-3" stdDeviation="5"/><feFlood flood-color="#231f20" flood-opacity=".5"/><feComposite in2="blur-3" operator="in"/><feComposite in="SourceGraphic"/></filter></defs><path class="cls-1" d="M512.73,114.67c-16.08-29.62-41.12-55.07-78.97-70.11-.84-.33-1.68-.67-2.51-1C341.3,7.79,242.78-.5,148.09,19.61,119.26,25.73,24.22,51.5,9,64.16V854.15c4.74,5.33,9.94,10.9,15.6,16.83,38.64,40.46,50.01,65.08,38.64,110.81-11.37,45.73-28.86,164.47,55.24,166.23,71.19,0,86.02-85.4,133.75-110.02,40.99-23.73,74.94-24.38,127.31-22.14,52.02,2.22,100.96-19.67,133.18-57.4V114.67h0Z"/><g class="cls-3"><path class="cls-4" d="M407.08,1236.93c-40.16,33.73-80.36,55.34-121.72,6.1-41.36-49.24-42.33-116.5-2.18-150.23,40.16-33.74,106.24-21.16,147.6,28.08,41.36,49.24,16.45,82.32-23.7,116.05Z"/></g><g class="cls-2"><circle class="cls-4" cx="96.79" cy="1234.25" r="38"/></g></svg>