<svg width="1480" height="2952" viewBox="0 0 1480 2952" fill="none" xmlns="http://www.w3.org/2000/svg">
<mask id="mask0_21_70" style="mask-type:alpha" maskUnits="userSpaceOnUse" x="11" y="0" width="1440" height="2920">
<rect width="1440" height="2920" transform="translate(11)" fill="white"/>
</mask>
<g mask="url(#mask0_21_70)">
<g filter="url(#filter0_d_21_70)">
<path d="M579 760C617.4 561.6 387 352 267 272L53 170L-66.5 109L-93 2920H1611V2064C1515 1920 1227 1984 1123 1760C1019 1536 843 1592 691 1408C539 1224 531 1008 579 760Z" fill="#8B2A14"/>
</g>
<g filter="url(#filter1_d_21_70)">
<path d="M1363.65 1649.56C1351.23 1713.81 1296.08 1738.13 1258.26 1734.44C1210.24 1721.46 1196.01 1678.04 1184.75 1640.37C1170.69 1593.29 1084.22 1558.58 1087.6 1507.97C1090.97 1457.35 1146 1482.53 1213.2 1489.36C1280.4 1496.18 1287.28 1451.67 1343.19 1481.21C1399.1 1510.74 1379.17 1569.25 1363.65 1649.56Z" fill="#8B2A14"/>
</g>
</g>
<defs>
<filter id="filter0_d_21_70" x="-104" y="101" width="1744" height="2851" filterUnits="userSpaceOnUse" color-interpolation-filters="sRGB">
<feFlood flood-opacity="0" result="BackgroundImageFix"/>
<feColorMatrix in="SourceAlpha" type="matrix" values="0 0 0 0 0 0 0 0 0 0 0 0 0 0 0 0 0 0 127 0" result="hardAlpha"/>
<feOffset dx="9" dy="12"/>
<feGaussianBlur stdDeviation="10"/>
<feComposite in2="hardAlpha" operator="out"/>
<feColorMatrix type="matrix" values="0 0 0 0 0 0 0 0 0 0 0 0 0 0 0 0 0 0 0.25 0"/>
<feBlend mode="normal" in2="BackgroundImageFix" result="effect1_dropShadow_21_70"/>
<feBlend mode="normal" in="SourceGraphic" in2="effect1_dropShadow_21_70" result="shape"/>
</filter>
<filter id="filter1_d_21_70" x="1076.5" y="1462.98" width="332.706" height="303.826" filterUnits="userSpaceOnUse" color-interpolation-filters="sRGB">
<feFlood flood-opacity="0" result="BackgroundImageFix"/>
<feColorMatrix in="SourceAlpha" type="matrix" values="0 0 0 0 0 0 0 0 0 0 0 0 0 0 0 0 0 0 127 0" result="hardAlpha"/>
<feOffset dx="9" dy="12"/>
<feGaussianBlur stdDeviation="10"/>
<feComposite in2="hardAlpha" operator="out"/>
<feColorMatrix type="matrix" values="0 0 0 0 0 0 0 0 0 0 0 0 0 0 0 0 0 0 0.25 0"/>
<feBlend mode="normal" in2="BackgroundImageFix" result="effect1_dropShadow_21_70"/>
<feBlend mode="normal" in="SourceGraphic" in2="effect1_dropShadow_21_70" result="shape"/>
</filter>
</defs>
</svg>
